<mxfile host="app.diagrams.net" modified="2023-10-04T03:39:45.019Z" agent="Mozilla/5.0 (Windows NT 10.0; Win64; x64) AppleWebKit/537.36 (KHTML, like Gecko) Chrome/117.0.0.0 Safari/537.36" etag="Es5SBKEoV0DEmjUOxIiG" version="22.0.2" type="github">
  <diagram name="Page-1" id="099fd60b-425b-db50-ffb0-6b813814b670">
    <mxGraphModel dx="2899" dy="1129" grid="1" gridSize="10" guides="1" tooltips="1" connect="1" arrows="1" fold="1" page="1" pageScale="1" pageWidth="850" pageHeight="1100" background="none" math="0" shadow="0">
      <root>
        <mxCell id="0" />
        <mxCell id="1" parent="0" />
        <mxCell id="jP0OgEoj5nMLgK3pQah_-54" value="" style="edgeStyle=orthogonalEdgeStyle;rounded=0;orthogonalLoop=1;jettySize=auto;html=1;exitX=1;exitY=0.5;exitDx=0;exitDy=0;strokeColor=#3CFF00;" edge="1" parent="1" source="jP0OgEoj5nMLgK3pQah_-34">
          <mxGeometry relative="1" as="geometry">
            <mxPoint x="-330" y="198" as="sourcePoint" />
            <mxPoint x="290" y="305" as="targetPoint" />
            <Array as="points">
              <mxPoint x="160" y="198" />
              <mxPoint x="160" y="305" />
            </Array>
          </mxGeometry>
        </mxCell>
        <mxCell id="jP0OgEoj5nMLgK3pQah_-55" value="1-8" style="edgeLabel;html=1;align=center;verticalAlign=middle;resizable=0;points=[];fontSize=17;" vertex="1" connectable="0" parent="jP0OgEoj5nMLgK3pQah_-54">
          <mxGeometry x="0.0419" y="-2" relative="1" as="geometry">
            <mxPoint x="-162" as="offset" />
          </mxGeometry>
        </mxCell>
        <mxCell id="jP0OgEoj5nMLgK3pQah_-91" value="" style="edgeStyle=orthogonalEdgeStyle;rounded=0;orthogonalLoop=1;jettySize=auto;html=1;exitX=1;exitY=0.5;exitDx=0;exitDy=0;strokeColor=#3CFF00;" edge="1" parent="1" source="jP0OgEoj5nMLgK3pQah_-71">
          <mxGeometry relative="1" as="geometry">
            <mxPoint x="-200" y="454" as="sourcePoint" />
            <mxPoint x="290" y="304" as="targetPoint" />
            <Array as="points">
              <mxPoint x="160" y="451" />
              <mxPoint x="160" y="304" />
            </Array>
          </mxGeometry>
        </mxCell>
        <mxCell id="jP0OgEoj5nMLgK3pQah_-102" value="10-18" style="edgeLabel;html=1;align=center;verticalAlign=middle;resizable=0;points=[];fontSize=14;" vertex="1" connectable="0" parent="jP0OgEoj5nMLgK3pQah_-91">
          <mxGeometry x="0.1826" y="-2" relative="1" as="geometry">
            <mxPoint x="-142" y="50" as="offset" />
          </mxGeometry>
        </mxCell>
        <mxCell id="jP0OgEoj5nMLgK3pQah_-135" value="" style="edgeStyle=orthogonalEdgeStyle;rounded=0;orthogonalLoop=1;jettySize=auto;html=1;strokeColor=#0008FF;" edge="1" parent="1" source="jP0OgEoj5nMLgK3pQah_-2">
          <mxGeometry relative="1" as="geometry">
            <mxPoint x="30" y="570" as="targetPoint" />
            <Array as="points">
              <mxPoint x="320" y="480" />
              <mxPoint x="30" y="480" />
            </Array>
          </mxGeometry>
        </mxCell>
        <mxCell id="jP0OgEoj5nMLgK3pQah_-167" value="" style="edgeStyle=orthogonalEdgeStyle;rounded=0;orthogonalLoop=1;jettySize=auto;html=1;strokeColor=#0008FF;" edge="1" parent="1" target="jP0OgEoj5nMLgK3pQah_-136">
          <mxGeometry relative="1" as="geometry">
            <mxPoint x="423.00000000000045" y="420" as="sourcePoint" />
            <mxPoint x="263.00000000000045" y="571" as="targetPoint" />
            <Array as="points">
              <mxPoint x="423" y="500" />
              <mxPoint x="260" y="500" />
            </Array>
          </mxGeometry>
        </mxCell>
        <mxCell id="jP0OgEoj5nMLgK3pQah_-199" value="" style="edgeStyle=orthogonalEdgeStyle;rounded=0;orthogonalLoop=1;jettySize=auto;html=1;strokeColor=#0008FF;" edge="1" parent="1" source="jP0OgEoj5nMLgK3pQah_-2" target="jP0OgEoj5nMLgK3pQah_-168">
          <mxGeometry relative="1" as="geometry">
            <Array as="points">
              <mxPoint x="480" y="510" />
              <mxPoint x="410" y="510" />
            </Array>
          </mxGeometry>
        </mxCell>
        <mxCell id="jP0OgEoj5nMLgK3pQah_-231" value="" style="edgeStyle=orthogonalEdgeStyle;rounded=0;orthogonalLoop=1;jettySize=auto;html=1;strokeColor=#0008FF;" edge="1" parent="1" source="jP0OgEoj5nMLgK3pQah_-2" target="jP0OgEoj5nMLgK3pQah_-200">
          <mxGeometry relative="1" as="geometry">
            <Array as="points">
              <mxPoint x="539" y="510" />
              <mxPoint x="570" y="510" />
            </Array>
          </mxGeometry>
        </mxCell>
        <mxCell id="jP0OgEoj5nMLgK3pQah_-305" value="" style="edgeStyle=orthogonalEdgeStyle;rounded=0;orthogonalLoop=1;jettySize=auto;html=1;strokeColor=#FF1717;" edge="1" parent="1" source="jP0OgEoj5nMLgK3pQah_-2" target="jP0OgEoj5nMLgK3pQah_-304">
          <mxGeometry relative="1" as="geometry">
            <Array as="points">
              <mxPoint x="660" y="480" />
              <mxPoint x="890" y="480" />
            </Array>
          </mxGeometry>
        </mxCell>
        <mxCell id="jP0OgEoj5nMLgK3pQah_-310" value="" style="edgeStyle=orthogonalEdgeStyle;rounded=0;orthogonalLoop=1;jettySize=auto;html=1;" edge="1" parent="1" source="jP0OgEoj5nMLgK3pQah_-2" target="jP0OgEoj5nMLgK3pQah_-309">
          <mxGeometry relative="1" as="geometry">
            <Array as="points">
              <mxPoint x="840" y="390" />
              <mxPoint x="840" y="390" />
            </Array>
          </mxGeometry>
        </mxCell>
        <mxCell id="jP0OgEoj5nMLgK3pQah_-2" value="CONSOLA" style="shape=table;startSize=30;container=1;collapsible=0;childLayout=tableLayout;fontSize=16;perimeterSpacing=0;" vertex="1" parent="1">
          <mxGeometry x="290" y="190" width="510" height="230" as="geometry" />
        </mxCell>
        <mxCell id="jP0OgEoj5nMLgK3pQah_-3" value="" style="shape=tableRow;horizontal=0;startSize=0;swimlaneHead=0;swimlaneBody=0;strokeColor=inherit;top=0;left=0;bottom=0;right=0;collapsible=0;dropTarget=0;fillColor=none;points=[[0,0.5],[1,0.5]];portConstraint=eastwest;fontSize=16;" vertex="1" parent="jP0OgEoj5nMLgK3pQah_-2">
          <mxGeometry y="30" width="510" height="66" as="geometry" />
        </mxCell>
        <mxCell id="jP0OgEoj5nMLgK3pQah_-4" value="1-Mwa" style="shape=partialRectangle;html=1;whiteSpace=wrap;connectable=0;strokeColor=inherit;overflow=hidden;fillColor=none;top=0;left=0;bottom=0;right=0;pointerEvents=1;fontSize=16;" vertex="1" parent="jP0OgEoj5nMLgK3pQah_-3">
          <mxGeometry width="56" height="66" as="geometry">
            <mxRectangle width="56" height="66" as="alternateBounds" />
          </mxGeometry>
        </mxCell>
        <mxCell id="jP0OgEoj5nMLgK3pQah_-5" value="2-Mfl" style="shape=partialRectangle;html=1;whiteSpace=wrap;connectable=0;strokeColor=inherit;overflow=hidden;fillColor=none;top=0;left=0;bottom=0;right=0;pointerEvents=1;fontSize=16;" vertex="1" parent="jP0OgEoj5nMLgK3pQah_-3">
          <mxGeometry x="56" width="55" height="66" as="geometry">
            <mxRectangle width="55" height="66" as="alternateBounds" />
          </mxGeometry>
        </mxCell>
        <mxCell id="jP0OgEoj5nMLgK3pQah_-6" value="3-Mpam" style="shape=partialRectangle;html=1;whiteSpace=wrap;connectable=0;strokeColor=inherit;overflow=hidden;fillColor=none;top=0;left=0;bottom=0;right=0;pointerEvents=1;fontSize=16;" vertex="1" parent="jP0OgEoj5nMLgK3pQah_-3">
          <mxGeometry x="111" width="58" height="66" as="geometry">
            <mxRectangle width="58" height="66" as="alternateBounds" />
          </mxGeometry>
        </mxCell>
        <mxCell id="jP0OgEoj5nMLgK3pQah_-19" value="4-Mmdla" style="shape=partialRectangle;html=1;whiteSpace=wrap;connectable=0;strokeColor=inherit;overflow=hidden;fillColor=none;top=0;left=0;bottom=0;right=0;pointerEvents=1;fontSize=16;" vertex="1" parent="jP0OgEoj5nMLgK3pQah_-3">
          <mxGeometry x="169" width="56" height="66" as="geometry">
            <mxRectangle width="56" height="66" as="alternateBounds" />
          </mxGeometry>
        </mxCell>
        <mxCell id="jP0OgEoj5nMLgK3pQah_-21" value="5-Mtomi" style="shape=partialRectangle;html=1;whiteSpace=wrap;connectable=0;strokeColor=inherit;overflow=hidden;fillColor=none;top=0;left=0;bottom=0;right=0;pointerEvents=1;fontSize=16;" vertex="1" parent="jP0OgEoj5nMLgK3pQah_-3">
          <mxGeometry x="225" width="60" height="66" as="geometry">
            <mxRectangle width="60" height="66" as="alternateBounds" />
          </mxGeometry>
        </mxCell>
        <mxCell id="jP0OgEoj5nMLgK3pQah_-23" value="6-Mso" style="shape=partialRectangle;html=1;whiteSpace=wrap;connectable=0;strokeColor=inherit;overflow=hidden;fillColor=none;top=0;left=0;bottom=0;right=0;pointerEvents=1;fontSize=16;" vertex="1" parent="jP0OgEoj5nMLgK3pQah_-3">
          <mxGeometry x="285" width="56" height="66" as="geometry">
            <mxRectangle width="56" height="66" as="alternateBounds" />
          </mxGeometry>
        </mxCell>
        <mxCell id="jP0OgEoj5nMLgK3pQah_-25" value="7-Mbr" style="shape=partialRectangle;html=1;whiteSpace=wrap;connectable=0;strokeColor=inherit;overflow=hidden;fillColor=none;top=0;left=0;bottom=0;right=0;pointerEvents=1;fontSize=16;" vertex="1" parent="jP0OgEoj5nMLgK3pQah_-3">
          <mxGeometry x="341" width="58" height="66" as="geometry">
            <mxRectangle width="58" height="66" as="alternateBounds" />
          </mxGeometry>
        </mxCell>
        <mxCell id="jP0OgEoj5nMLgK3pQah_-27" value="8-Mja" style="shape=partialRectangle;html=1;whiteSpace=wrap;connectable=0;strokeColor=inherit;overflow=hidden;fillColor=none;top=0;left=0;bottom=0;right=0;pointerEvents=1;fontSize=16;" vertex="1" parent="jP0OgEoj5nMLgK3pQah_-3">
          <mxGeometry x="399" width="55" height="66" as="geometry">
            <mxRectangle width="55" height="66" as="alternateBounds" />
          </mxGeometry>
        </mxCell>
        <mxCell id="jP0OgEoj5nMLgK3pQah_-29" value="9-Area" style="shape=partialRectangle;html=1;whiteSpace=wrap;connectable=0;strokeColor=inherit;overflow=hidden;fillColor=none;top=0;left=0;bottom=0;right=0;pointerEvents=1;fontSize=16;" vertex="1" parent="jP0OgEoj5nMLgK3pQah_-3">
          <mxGeometry x="454" width="56" height="66" as="geometry">
            <mxRectangle width="56" height="66" as="alternateBounds" />
          </mxGeometry>
        </mxCell>
        <mxCell id="jP0OgEoj5nMLgK3pQah_-7" value="" style="shape=tableRow;horizontal=0;startSize=0;swimlaneHead=0;swimlaneBody=0;strokeColor=inherit;top=0;left=0;bottom=0;right=0;collapsible=0;dropTarget=0;fillColor=none;points=[[0,0.5],[1,0.5]];portConstraint=eastwest;fontSize=16;" vertex="1" parent="jP0OgEoj5nMLgK3pQah_-2">
          <mxGeometry y="96" width="510" height="68" as="geometry" />
        </mxCell>
        <mxCell id="jP0OgEoj5nMLgK3pQah_-8" value="10-BatT" style="shape=partialRectangle;html=1;whiteSpace=wrap;connectable=0;strokeColor=inherit;overflow=hidden;fillColor=none;top=0;left=0;bottom=0;right=0;pointerEvents=1;fontSize=16;" vertex="1" parent="jP0OgEoj5nMLgK3pQah_-7">
          <mxGeometry width="56" height="68" as="geometry">
            <mxRectangle width="56" height="68" as="alternateBounds" />
          </mxGeometry>
        </mxCell>
        <mxCell id="jP0OgEoj5nMLgK3pQah_-9" value="11-BatB" style="shape=partialRectangle;html=1;whiteSpace=wrap;connectable=0;strokeColor=inherit;overflow=hidden;fillColor=none;top=0;left=0;bottom=0;right=0;pointerEvents=1;fontSize=16;" vertex="1" parent="jP0OgEoj5nMLgK3pQah_-7">
          <mxGeometry x="56" width="55" height="68" as="geometry">
            <mxRectangle width="55" height="68" as="alternateBounds" />
          </mxGeometry>
        </mxCell>
        <mxCell id="jP0OgEoj5nMLgK3pQah_-10" value="12-PiLow" style="shape=partialRectangle;html=1;whiteSpace=wrap;connectable=0;strokeColor=inherit;overflow=hidden;fillColor=none;top=0;left=0;bottom=0;right=0;pointerEvents=1;fontSize=16;" vertex="1" parent="jP0OgEoj5nMLgK3pQah_-7">
          <mxGeometry x="111" width="58" height="68" as="geometry">
            <mxRectangle width="58" height="68" as="alternateBounds" />
          </mxGeometry>
        </mxCell>
        <mxCell id="jP0OgEoj5nMLgK3pQah_-20" value="13-PiHigh" style="shape=partialRectangle;html=1;whiteSpace=wrap;connectable=0;strokeColor=inherit;overflow=hidden;fillColor=none;top=0;left=0;bottom=0;right=0;pointerEvents=1;fontSize=16;" vertex="1" parent="jP0OgEoj5nMLgK3pQah_-7">
          <mxGeometry x="169" width="56" height="68" as="geometry">
            <mxRectangle width="56" height="68" as="alternateBounds" />
          </mxGeometry>
        </mxCell>
        <mxCell id="jP0OgEoj5nMLgK3pQah_-22" value="14-Guit" style="shape=partialRectangle;html=1;whiteSpace=wrap;connectable=0;strokeColor=inherit;overflow=hidden;fillColor=none;top=0;left=0;bottom=0;right=0;pointerEvents=1;fontSize=16;" vertex="1" parent="jP0OgEoj5nMLgK3pQah_-7">
          <mxGeometry x="225" width="60" height="68" as="geometry">
            <mxRectangle width="60" height="68" as="alternateBounds" />
          </mxGeometry>
        </mxCell>
        <mxCell id="jP0OgEoj5nMLgK3pQah_-24" value="15-Saxo" style="shape=partialRectangle;html=1;whiteSpace=wrap;connectable=0;strokeColor=inherit;overflow=hidden;fillColor=none;top=0;left=0;bottom=0;right=0;pointerEvents=1;fontSize=16;" vertex="1" parent="jP0OgEoj5nMLgK3pQah_-7">
          <mxGeometry x="285" width="56" height="68" as="geometry">
            <mxRectangle width="56" height="68" as="alternateBounds" />
          </mxGeometry>
        </mxCell>
        <mxCell id="jP0OgEoj5nMLgK3pQah_-26" value="16-Libre" style="shape=partialRectangle;html=1;whiteSpace=wrap;connectable=0;strokeColor=inherit;overflow=hidden;fillColor=none;top=0;left=0;bottom=0;right=0;pointerEvents=1;fontSize=16;" vertex="1" parent="jP0OgEoj5nMLgK3pQah_-7">
          <mxGeometry x="341" width="58" height="68" as="geometry">
            <mxRectangle width="58" height="68" as="alternateBounds" />
          </mxGeometry>
        </mxCell>
        <mxCell id="jP0OgEoj5nMLgK3pQah_-28" value="17-SintL" style="shape=partialRectangle;html=1;whiteSpace=wrap;connectable=0;strokeColor=inherit;overflow=hidden;fillColor=none;top=0;left=0;bottom=0;right=0;pointerEvents=1;fontSize=16;" vertex="1" parent="jP0OgEoj5nMLgK3pQah_-7">
          <mxGeometry x="399" width="55" height="68" as="geometry">
            <mxRectangle width="55" height="68" as="alternateBounds" />
          </mxGeometry>
        </mxCell>
        <mxCell id="jP0OgEoj5nMLgK3pQah_-30" value="18-SintR" style="shape=partialRectangle;html=1;whiteSpace=wrap;connectable=0;strokeColor=inherit;overflow=hidden;fillColor=none;top=0;left=0;bottom=0;right=0;pointerEvents=1;fontSize=16;" vertex="1" parent="jP0OgEoj5nMLgK3pQah_-7">
          <mxGeometry x="454" width="56" height="68" as="geometry">
            <mxRectangle width="56" height="68" as="alternateBounds" />
          </mxGeometry>
        </mxCell>
        <mxCell id="jP0OgEoj5nMLgK3pQah_-92" style="shape=tableRow;horizontal=0;startSize=0;swimlaneHead=0;swimlaneBody=0;strokeColor=inherit;top=0;left=0;bottom=0;right=0;collapsible=0;dropTarget=0;fillColor=none;points=[[0,0.5],[1,0.5]];portConstraint=eastwest;fontSize=16;" vertex="1" parent="jP0OgEoj5nMLgK3pQah_-2">
          <mxGeometry y="164" width="510" height="66" as="geometry" />
        </mxCell>
        <mxCell id="jP0OgEoj5nMLgK3pQah_-93" value="AUX1&lt;span style=&quot;white-space: pre;&quot;&gt;&lt;/span&gt;" style="shape=partialRectangle;html=1;whiteSpace=wrap;connectable=0;strokeColor=inherit;overflow=hidden;fillColor=none;top=0;left=0;bottom=0;right=0;pointerEvents=1;fontSize=16;" vertex="1" parent="jP0OgEoj5nMLgK3pQah_-92">
          <mxGeometry width="56" height="66" as="geometry">
            <mxRectangle width="56" height="66" as="alternateBounds" />
          </mxGeometry>
        </mxCell>
        <mxCell id="jP0OgEoj5nMLgK3pQah_-94" value="AUX2" style="shape=partialRectangle;html=1;whiteSpace=wrap;connectable=0;strokeColor=inherit;overflow=hidden;fillColor=none;top=0;left=0;bottom=0;right=0;pointerEvents=1;fontSize=16;" vertex="1" parent="jP0OgEoj5nMLgK3pQah_-92">
          <mxGeometry x="56" width="55" height="66" as="geometry">
            <mxRectangle width="55" height="66" as="alternateBounds" />
          </mxGeometry>
        </mxCell>
        <mxCell id="jP0OgEoj5nMLgK3pQah_-95" value="AUX3" style="shape=partialRectangle;html=1;whiteSpace=wrap;connectable=0;strokeColor=inherit;overflow=hidden;fillColor=none;top=0;left=0;bottom=0;right=0;pointerEvents=1;fontSize=16;" vertex="1" parent="jP0OgEoj5nMLgK3pQah_-92">
          <mxGeometry x="111" width="58" height="66" as="geometry">
            <mxRectangle width="58" height="66" as="alternateBounds" />
          </mxGeometry>
        </mxCell>
        <mxCell id="jP0OgEoj5nMLgK3pQah_-96" value="AUX4" style="shape=partialRectangle;html=1;whiteSpace=wrap;connectable=0;strokeColor=inherit;overflow=hidden;fillColor=none;top=0;left=0;bottom=0;right=0;pointerEvents=1;fontSize=16;" vertex="1" parent="jP0OgEoj5nMLgK3pQah_-92">
          <mxGeometry x="169" width="56" height="66" as="geometry">
            <mxRectangle width="56" height="66" as="alternateBounds" />
          </mxGeometry>
        </mxCell>
        <mxCell id="jP0OgEoj5nMLgK3pQah_-97" value="AUX5" style="shape=partialRectangle;html=1;whiteSpace=wrap;connectable=0;strokeColor=inherit;overflow=hidden;fillColor=none;top=0;left=0;bottom=0;right=0;pointerEvents=1;fontSize=16;" vertex="1" parent="jP0OgEoj5nMLgK3pQah_-92">
          <mxGeometry x="225" width="60" height="66" as="geometry">
            <mxRectangle width="60" height="66" as="alternateBounds" />
          </mxGeometry>
        </mxCell>
        <mxCell id="jP0OgEoj5nMLgK3pQah_-98" value="AUX6" style="shape=partialRectangle;html=1;whiteSpace=wrap;connectable=0;strokeColor=inherit;overflow=hidden;fillColor=none;top=0;left=0;bottom=0;right=0;pointerEvents=1;fontSize=16;" vertex="1" parent="jP0OgEoj5nMLgK3pQah_-92">
          <mxGeometry x="285" width="56" height="66" as="geometry">
            <mxRectangle width="56" height="66" as="alternateBounds" />
          </mxGeometry>
        </mxCell>
        <mxCell id="jP0OgEoj5nMLgK3pQah_-99" value="MainL" style="shape=partialRectangle;html=1;whiteSpace=wrap;connectable=0;strokeColor=inherit;overflow=hidden;fillColor=none;top=0;left=0;bottom=0;right=0;pointerEvents=1;fontSize=16;" vertex="1" parent="jP0OgEoj5nMLgK3pQah_-92">
          <mxGeometry x="341" width="58" height="66" as="geometry">
            <mxRectangle width="58" height="66" as="alternateBounds" />
          </mxGeometry>
        </mxCell>
        <mxCell id="jP0OgEoj5nMLgK3pQah_-100" value="MainR" style="shape=partialRectangle;html=1;whiteSpace=wrap;connectable=0;strokeColor=inherit;overflow=hidden;fillColor=none;top=0;left=0;bottom=0;right=0;pointerEvents=1;fontSize=16;" vertex="1" parent="jP0OgEoj5nMLgK3pQah_-92">
          <mxGeometry x="399" width="55" height="66" as="geometry">
            <mxRectangle width="55" height="66" as="alternateBounds" />
          </mxGeometry>
        </mxCell>
        <mxCell id="jP0OgEoj5nMLgK3pQah_-101" value="Phones" style="shape=partialRectangle;html=1;whiteSpace=wrap;connectable=0;strokeColor=inherit;overflow=hidden;fillColor=none;top=0;left=0;bottom=0;right=0;pointerEvents=1;fontSize=16;" vertex="1" parent="jP0OgEoj5nMLgK3pQah_-92">
          <mxGeometry x="454" width="56" height="66" as="geometry">
            <mxRectangle width="56" height="66" as="alternateBounds" />
          </mxGeometry>
        </mxCell>
        <mxCell id="jP0OgEoj5nMLgK3pQah_-33" value="Microfonos - Canales 1-8" style="shape=table;startSize=30;container=1;collapsible=0;childLayout=tableLayout;fontSize=18;perimeterSpacing=0;strokeColor=#5EFF00;" vertex="1" parent="1">
          <mxGeometry x="-780" y="130" width="430" height="105" as="geometry" />
        </mxCell>
        <mxCell id="jP0OgEoj5nMLgK3pQah_-34" value="" style="shape=tableRow;horizontal=0;startSize=0;swimlaneHead=0;swimlaneBody=0;strokeColor=inherit;top=0;left=0;bottom=0;right=0;collapsible=0;dropTarget=0;fillColor=none;points=[[0,0.5],[1,0.5]];portConstraint=eastwest;fontSize=16;" vertex="1" parent="jP0OgEoj5nMLgK3pQah_-33">
          <mxGeometry y="30" width="430" height="75" as="geometry" />
        </mxCell>
        <mxCell id="jP0OgEoj5nMLgK3pQah_-35" value="1-Mwa" style="shape=partialRectangle;html=1;whiteSpace=wrap;connectable=0;strokeColor=inherit;overflow=hidden;fillColor=none;top=0;left=0;bottom=0;right=0;pointerEvents=1;fontSize=17;" vertex="1" parent="jP0OgEoj5nMLgK3pQah_-34">
          <mxGeometry width="54" height="75" as="geometry">
            <mxRectangle width="54" height="75" as="alternateBounds" />
          </mxGeometry>
        </mxCell>
        <mxCell id="jP0OgEoj5nMLgK3pQah_-36" value="2-Mfl" style="shape=partialRectangle;html=1;whiteSpace=wrap;connectable=0;strokeColor=inherit;overflow=hidden;fillColor=none;top=0;left=0;bottom=0;right=0;pointerEvents=1;fontSize=17;" vertex="1" parent="jP0OgEoj5nMLgK3pQah_-34">
          <mxGeometry x="54" width="52" height="75" as="geometry">
            <mxRectangle width="52" height="75" as="alternateBounds" />
          </mxGeometry>
        </mxCell>
        <mxCell id="jP0OgEoj5nMLgK3pQah_-37" value="3-Mpam" style="shape=partialRectangle;html=1;whiteSpace=wrap;connectable=0;strokeColor=inherit;overflow=hidden;fillColor=none;top=0;left=0;bottom=0;right=0;pointerEvents=1;fontSize=17;" vertex="1" parent="jP0OgEoj5nMLgK3pQah_-34">
          <mxGeometry x="106" width="56" height="75" as="geometry">
            <mxRectangle width="56" height="75" as="alternateBounds" />
          </mxGeometry>
        </mxCell>
        <mxCell id="jP0OgEoj5nMLgK3pQah_-38" value="4-Mmdla" style="shape=partialRectangle;html=1;whiteSpace=wrap;connectable=0;strokeColor=inherit;overflow=hidden;fillColor=none;top=0;left=0;bottom=0;right=0;pointerEvents=1;fontSize=17;" vertex="1" parent="jP0OgEoj5nMLgK3pQah_-34">
          <mxGeometry x="162" width="53" height="75" as="geometry">
            <mxRectangle width="53" height="75" as="alternateBounds" />
          </mxGeometry>
        </mxCell>
        <mxCell id="jP0OgEoj5nMLgK3pQah_-39" value="5-Mtomi" style="shape=partialRectangle;html=1;whiteSpace=wrap;connectable=0;strokeColor=inherit;overflow=hidden;fillColor=none;top=0;left=0;bottom=0;right=0;pointerEvents=1;fontSize=17;" vertex="1" parent="jP0OgEoj5nMLgK3pQah_-34">
          <mxGeometry x="215" width="54" height="75" as="geometry">
            <mxRectangle width="54" height="75" as="alternateBounds" />
          </mxGeometry>
        </mxCell>
        <mxCell id="jP0OgEoj5nMLgK3pQah_-40" value="6-Mso" style="shape=partialRectangle;html=1;whiteSpace=wrap;connectable=0;strokeColor=inherit;overflow=hidden;fillColor=none;top=0;left=0;bottom=0;right=0;pointerEvents=1;fontSize=17;" vertex="1" parent="jP0OgEoj5nMLgK3pQah_-34">
          <mxGeometry x="269" width="54" height="75" as="geometry">
            <mxRectangle width="54" height="75" as="alternateBounds" />
          </mxGeometry>
        </mxCell>
        <mxCell id="jP0OgEoj5nMLgK3pQah_-41" value="7-Mbr" style="shape=partialRectangle;html=1;whiteSpace=wrap;connectable=0;strokeColor=inherit;overflow=hidden;fillColor=none;top=0;left=0;bottom=0;right=0;pointerEvents=1;fontSize=17;" vertex="1" parent="jP0OgEoj5nMLgK3pQah_-34">
          <mxGeometry x="323" width="55" height="75" as="geometry">
            <mxRectangle width="55" height="75" as="alternateBounds" />
          </mxGeometry>
        </mxCell>
        <mxCell id="jP0OgEoj5nMLgK3pQah_-42" value="8-Mja" style="shape=partialRectangle;html=1;whiteSpace=wrap;connectable=0;strokeColor=inherit;overflow=hidden;fillColor=none;top=0;left=0;bottom=0;right=0;pointerEvents=1;fontSize=17;" vertex="1" parent="jP0OgEoj5nMLgK3pQah_-34">
          <mxGeometry x="378" width="52" height="75" as="geometry">
            <mxRectangle width="52" height="75" as="alternateBounds" />
          </mxGeometry>
        </mxCell>
        <mxCell id="jP0OgEoj5nMLgK3pQah_-57" value="9-Mic Area&lt;br&gt;&lt;font color=&quot;#ff0800&quot;&gt;Phantom 48v&lt;/font&gt;" style="whiteSpace=wrap;html=1;fontSize=16;startSize=30;strokeColor=#4DFF00;" vertex="1" parent="1">
          <mxGeometry x="-780" y="275" width="120" height="60" as="geometry" />
        </mxCell>
        <mxCell id="jP0OgEoj5nMLgK3pQah_-70" value="INSTRUMENTOS - Canales 10-18" style="shape=table;startSize=30;container=1;collapsible=0;childLayout=tableLayout;fontSize=16;perimeterSpacing=0;strokeColor=#00FF00;" vertex="1" parent="1">
          <mxGeometry x="-780" y="366" width="660" height="140" as="geometry" />
        </mxCell>
        <mxCell id="jP0OgEoj5nMLgK3pQah_-71" value="" style="shape=tableRow;horizontal=0;startSize=0;swimlaneHead=0;swimlaneBody=0;strokeColor=inherit;top=0;left=0;bottom=0;right=0;collapsible=0;dropTarget=0;fillColor=none;points=[[0,0.5],[1,0.5]];portConstraint=eastwest;fontSize=16;" vertex="1" parent="jP0OgEoj5nMLgK3pQah_-70">
          <mxGeometry y="30" width="660" height="110" as="geometry" />
        </mxCell>
        <mxCell id="jP0OgEoj5nMLgK3pQah_-72" value="10-Bateria&lt;br&gt;Tambor&lt;br&gt;&lt;font color=&quot;#ff0800&quot;&gt;Ph. 48v&lt;/font&gt;" style="shape=partialRectangle;html=1;whiteSpace=wrap;connectable=0;strokeColor=inherit;overflow=hidden;fillColor=none;top=0;left=0;bottom=0;right=0;pointerEvents=1;fontSize=16;" vertex="1" parent="jP0OgEoj5nMLgK3pQah_-71">
          <mxGeometry width="81" height="110" as="geometry">
            <mxRectangle width="81" height="110" as="alternateBounds" />
          </mxGeometry>
        </mxCell>
        <mxCell id="jP0OgEoj5nMLgK3pQah_-73" value="11-Bateria&lt;br&gt;Bombo&lt;br&gt;&lt;font color=&quot;#ff0800&quot;&gt;Ph. 48v&lt;/font&gt;" style="shape=partialRectangle;html=1;whiteSpace=wrap;connectable=0;strokeColor=inherit;overflow=hidden;fillColor=none;top=0;left=0;bottom=0;right=0;pointerEvents=1;fontSize=16;" vertex="1" parent="jP0OgEoj5nMLgK3pQah_-71">
          <mxGeometry x="81" width="78" height="110" as="geometry">
            <mxRectangle width="78" height="110" as="alternateBounds" />
          </mxGeometry>
        </mxCell>
        <mxCell id="jP0OgEoj5nMLgK3pQah_-74" value="12-Piano&lt;br&gt;Graves&lt;br&gt;&lt;font color=&quot;#ff0800&quot;&gt;Ph. 48v&lt;/font&gt;" style="shape=partialRectangle;html=1;whiteSpace=wrap;connectable=0;strokeColor=inherit;overflow=hidden;fillColor=none;top=0;left=0;bottom=0;right=0;pointerEvents=1;fontSize=16;" vertex="1" parent="jP0OgEoj5nMLgK3pQah_-71">
          <mxGeometry x="159" width="84" height="110" as="geometry">
            <mxRectangle width="84" height="110" as="alternateBounds" />
          </mxGeometry>
        </mxCell>
        <mxCell id="jP0OgEoj5nMLgK3pQah_-75" value="13-&lt;br&gt;Piano&lt;br&gt;Agudos&lt;br&gt;&lt;font color=&quot;#ff0800&quot;&gt;Ph. 48v&lt;/font&gt;" style="shape=partialRectangle;html=1;whiteSpace=wrap;connectable=0;strokeColor=inherit;overflow=hidden;fillColor=none;top=0;left=0;bottom=0;right=0;pointerEvents=1;fontSize=16;" vertex="1" parent="jP0OgEoj5nMLgK3pQah_-71">
          <mxGeometry x="243" width="82" height="110" as="geometry">
            <mxRectangle width="82" height="110" as="alternateBounds" />
          </mxGeometry>
        </mxCell>
        <mxCell id="jP0OgEoj5nMLgK3pQah_-76" value="14-Guitarra&lt;br&gt;(Caja Directa)" style="shape=partialRectangle;html=1;whiteSpace=wrap;connectable=0;strokeColor=inherit;overflow=hidden;fillColor=none;top=0;left=0;bottom=0;right=0;pointerEvents=1;fontSize=16;" vertex="1" parent="jP0OgEoj5nMLgK3pQah_-71">
          <mxGeometry x="325" width="95" height="110" as="geometry">
            <mxRectangle width="95" height="110" as="alternateBounds" />
          </mxGeometry>
        </mxCell>
        <mxCell id="jP0OgEoj5nMLgK3pQah_-77" value="15-Saxo&lt;br&gt;&lt;font color=&quot;#ff0800&quot;&gt;Ph. 48v&lt;/font&gt;" style="shape=partialRectangle;html=1;whiteSpace=wrap;connectable=0;strokeColor=inherit;overflow=hidden;fillColor=none;top=0;left=0;bottom=0;right=0;pointerEvents=1;fontSize=16;" vertex="1" parent="jP0OgEoj5nMLgK3pQah_-71">
          <mxGeometry x="420" width="80" height="110" as="geometry">
            <mxRectangle width="80" height="110" as="alternateBounds" />
          </mxGeometry>
        </mxCell>
        <mxCell id="jP0OgEoj5nMLgK3pQah_-78" value="17-Sint.&lt;br&gt;Graves" style="shape=partialRectangle;html=1;whiteSpace=wrap;connectable=0;strokeColor=inherit;overflow=hidden;fillColor=none;top=0;left=0;bottom=0;right=0;pointerEvents=1;fontSize=16;" vertex="1" parent="jP0OgEoj5nMLgK3pQah_-71">
          <mxGeometry x="500" width="69" height="110" as="geometry">
            <mxRectangle width="69" height="110" as="alternateBounds" />
          </mxGeometry>
        </mxCell>
        <mxCell id="jP0OgEoj5nMLgK3pQah_-79" value="18-Sint. Agudos" style="shape=partialRectangle;html=1;whiteSpace=wrap;connectable=0;strokeColor=inherit;overflow=hidden;fillColor=none;top=0;left=0;bottom=0;right=0;pointerEvents=1;fontSize=16;" vertex="1" parent="jP0OgEoj5nMLgK3pQah_-71">
          <mxGeometry x="569" width="91" height="110" as="geometry">
            <mxRectangle width="91" height="110" as="alternateBounds" />
          </mxGeometry>
        </mxCell>
        <mxCell id="jP0OgEoj5nMLgK3pQah_-58" value="" style="edgeStyle=orthogonalEdgeStyle;rounded=0;orthogonalLoop=1;jettySize=auto;html=1;strokeColor=#3CFF00;" edge="1" parent="1" source="jP0OgEoj5nMLgK3pQah_-57" target="jP0OgEoj5nMLgK3pQah_-2">
          <mxGeometry relative="1" as="geometry" />
        </mxCell>
        <mxCell id="jP0OgEoj5nMLgK3pQah_-59" value="9" style="edgeLabel;html=1;align=center;verticalAlign=middle;resizable=0;points=[];fontSize=17;" vertex="1" connectable="0" parent="jP0OgEoj5nMLgK3pQah_-58">
          <mxGeometry x="0.5102" y="1" relative="1" as="geometry">
            <mxPoint x="-190" y="1" as="offset" />
          </mxGeometry>
        </mxCell>
        <mxCell id="jP0OgEoj5nMLgK3pQah_-104" value="SUBWOOFER - AUX1" style="shape=table;startSize=30;container=1;collapsible=0;childLayout=tableLayout;fontSize=16;perimeterSpacing=0;strokeColor=#0008FF;" vertex="1" parent="1">
          <mxGeometry x="-92" y="571" width="262" height="99" as="geometry" />
        </mxCell>
        <mxCell id="jP0OgEoj5nMLgK3pQah_-105" value="" style="shape=tableRow;horizontal=0;startSize=0;swimlaneHead=0;swimlaneBody=0;strokeColor=inherit;top=0;left=0;bottom=0;right=0;collapsible=0;dropTarget=0;fillColor=none;points=[[0,0.5],[1,0.5]];portConstraint=eastwest;fontSize=16;" vertex="1" parent="jP0OgEoj5nMLgK3pQah_-104">
          <mxGeometry y="30" width="262" height="69" as="geometry" />
        </mxCell>
        <mxCell id="jP0OgEoj5nMLgK3pQah_-106" value="11 - Bombo Bateria&lt;br&gt;12 -Piano Low&lt;br&gt;17 - Sint Graves" style="shape=partialRectangle;html=1;whiteSpace=wrap;connectable=0;strokeColor=inherit;overflow=hidden;fillColor=none;top=0;left=0;bottom=0;right=0;pointerEvents=1;fontSize=16;" vertex="1" parent="jP0OgEoj5nMLgK3pQah_-105">
          <mxGeometry width="262" height="69" as="geometry">
            <mxRectangle width="262" height="69" as="alternateBounds" />
          </mxGeometry>
        </mxCell>
        <mxCell id="jP0OgEoj5nMLgK3pQah_-136" value="AUX3" style="shape=table;startSize=30;container=1;collapsible=0;childLayout=tableLayout;fontSize=16;perimeterSpacing=0;strokeColor=#0008FF;" vertex="1" parent="1">
          <mxGeometry x="188" y="570" width="127" height="99" as="geometry" />
        </mxCell>
        <mxCell id="jP0OgEoj5nMLgK3pQah_-137" value="" style="shape=tableRow;horizontal=0;startSize=0;swimlaneHead=0;swimlaneBody=0;strokeColor=inherit;top=0;left=0;bottom=0;right=0;collapsible=0;dropTarget=0;fillColor=none;points=[[0,0.5],[1,0.5]];portConstraint=eastwest;fontSize=16;" vertex="1" parent="jP0OgEoj5nMLgK3pQah_-136">
          <mxGeometry y="30" width="127" height="69" as="geometry" />
        </mxCell>
        <mxCell id="jP0OgEoj5nMLgK3pQah_-138" value="RETORNO VOCES" style="shape=partialRectangle;html=1;whiteSpace=wrap;connectable=0;strokeColor=inherit;overflow=hidden;fillColor=none;top=0;left=0;bottom=0;right=0;pointerEvents=1;fontSize=16;" vertex="1" parent="jP0OgEoj5nMLgK3pQah_-137">
          <mxGeometry width="127" height="69" as="geometry">
            <mxRectangle width="127" height="69" as="alternateBounds" />
          </mxGeometry>
        </mxCell>
        <mxCell id="jP0OgEoj5nMLgK3pQah_-168" value="AUX4" style="shape=table;startSize=30;container=1;collapsible=0;childLayout=tableLayout;fontSize=16;perimeterSpacing=0;strokeColor=#0008FF;" vertex="1" parent="1">
          <mxGeometry x="336" y="571" width="150" height="99" as="geometry" />
        </mxCell>
        <mxCell id="jP0OgEoj5nMLgK3pQah_-169" value="" style="shape=tableRow;horizontal=0;startSize=0;swimlaneHead=0;swimlaneBody=0;strokeColor=inherit;top=0;left=0;bottom=0;right=0;collapsible=0;dropTarget=0;fillColor=none;points=[[0,0.5],[1,0.5]];portConstraint=eastwest;fontSize=16;" vertex="1" parent="jP0OgEoj5nMLgK3pQah_-168">
          <mxGeometry y="30" width="150" height="69" as="geometry" />
        </mxCell>
        <mxCell id="jP0OgEoj5nMLgK3pQah_-170" value="RETORNO&lt;br&gt;INSTRUMENTOS" style="shape=partialRectangle;html=1;whiteSpace=wrap;connectable=0;strokeColor=inherit;overflow=hidden;fillColor=none;top=0;left=0;bottom=0;right=0;pointerEvents=1;fontSize=16;" vertex="1" parent="jP0OgEoj5nMLgK3pQah_-169">
          <mxGeometry width="150" height="69" as="geometry">
            <mxRectangle width="150" height="69" as="alternateBounds" />
          </mxGeometry>
        </mxCell>
        <mxCell id="jP0OgEoj5nMLgK3pQah_-200" value="AUX5" style="shape=table;startSize=30;container=1;collapsible=0;childLayout=tableLayout;fontSize=16;perimeterSpacing=0;strokeColor=#0008FF;" vertex="1" parent="1">
          <mxGeometry x="501" y="571" width="140" height="99" as="geometry" />
        </mxCell>
        <mxCell id="jP0OgEoj5nMLgK3pQah_-201" value="" style="shape=tableRow;horizontal=0;startSize=0;swimlaneHead=0;swimlaneBody=0;strokeColor=inherit;top=0;left=0;bottom=0;right=0;collapsible=0;dropTarget=0;fillColor=none;points=[[0,0.5],[1,0.5]];portConstraint=eastwest;fontSize=16;" vertex="1" parent="jP0OgEoj5nMLgK3pQah_-200">
          <mxGeometry y="30" width="140" height="69" as="geometry" />
        </mxCell>
        <mxCell id="jP0OgEoj5nMLgK3pQah_-202" value="STREAM-L" style="shape=partialRectangle;html=1;whiteSpace=wrap;connectable=0;strokeColor=inherit;overflow=hidden;fillColor=none;top=0;left=0;bottom=0;right=0;pointerEvents=1;fontSize=16;" vertex="1" parent="jP0OgEoj5nMLgK3pQah_-201">
          <mxGeometry width="140" height="69" as="geometry">
            <mxRectangle width="140" height="69" as="alternateBounds" />
          </mxGeometry>
        </mxCell>
        <mxCell id="jP0OgEoj5nMLgK3pQah_-300" value="" style="edgeStyle=orthogonalEdgeStyle;rounded=0;orthogonalLoop=1;jettySize=auto;html=1;strokeColor=#0008FF;" edge="1" parent="1" target="jP0OgEoj5nMLgK3pQah_-301" source="jP0OgEoj5nMLgK3pQah_-92">
          <mxGeometry relative="1" as="geometry">
            <mxPoint x="700" y="420" as="sourcePoint" />
            <Array as="points">
              <mxPoint x="595" y="500" />
              <mxPoint x="718" y="500" />
            </Array>
          </mxGeometry>
        </mxCell>
        <mxCell id="jP0OgEoj5nMLgK3pQah_-301" value="AUX6" style="shape=table;startSize=30;container=1;collapsible=0;childLayout=tableLayout;fontSize=16;perimeterSpacing=0;strokeColor=#0008FF;" vertex="1" parent="1">
          <mxGeometry x="655" y="571" width="127" height="99" as="geometry" />
        </mxCell>
        <mxCell id="jP0OgEoj5nMLgK3pQah_-302" value="" style="shape=tableRow;horizontal=0;startSize=0;swimlaneHead=0;swimlaneBody=0;strokeColor=inherit;top=0;left=0;bottom=0;right=0;collapsible=0;dropTarget=0;fillColor=none;points=[[0,0.5],[1,0.5]];portConstraint=eastwest;fontSize=16;" vertex="1" parent="jP0OgEoj5nMLgK3pQah_-301">
          <mxGeometry y="30" width="127" height="69" as="geometry" />
        </mxCell>
        <mxCell id="jP0OgEoj5nMLgK3pQah_-303" value="STREAM-R" style="shape=partialRectangle;html=1;whiteSpace=wrap;connectable=0;strokeColor=inherit;overflow=hidden;fillColor=none;top=0;left=0;bottom=0;right=0;pointerEvents=1;fontSize=16;" vertex="1" parent="jP0OgEoj5nMLgK3pQah_-302">
          <mxGeometry width="127" height="69" as="geometry">
            <mxRectangle width="127" height="69" as="alternateBounds" />
          </mxGeometry>
        </mxCell>
        <mxCell id="jP0OgEoj5nMLgK3pQah_-308" value="" style="edgeStyle=orthogonalEdgeStyle;rounded=0;orthogonalLoop=1;jettySize=auto;html=1;strokeColor=#FF0800;" edge="1" parent="1" source="jP0OgEoj5nMLgK3pQah_-304" target="jP0OgEoj5nMLgK3pQah_-307">
          <mxGeometry relative="1" as="geometry" />
        </mxCell>
        <mxCell id="jP0OgEoj5nMLgK3pQah_-304" value="POTENCIA" style="whiteSpace=wrap;html=1;fontSize=16;startSize=30;strokeColor=#FF0800;" vertex="1" parent="1">
          <mxGeometry x="830" y="590.5" width="120" height="60" as="geometry" />
        </mxCell>
        <mxCell id="jP0OgEoj5nMLgK3pQah_-306" style="edgeStyle=orthogonalEdgeStyle;rounded=0;orthogonalLoop=1;jettySize=auto;html=1;entryX=0.5;entryY=0;entryDx=0;entryDy=0;strokeColor=#FF1717;" edge="1" parent="1" source="jP0OgEoj5nMLgK3pQah_-92" target="jP0OgEoj5nMLgK3pQah_-304">
          <mxGeometry relative="1" as="geometry">
            <mxPoint x="760" y="460" as="targetPoint" />
            <Array as="points">
              <mxPoint x="710" y="450" />
              <mxPoint x="890" y="450" />
            </Array>
          </mxGeometry>
        </mxCell>
        <mxCell id="jP0OgEoj5nMLgK3pQah_-307" value="MAIN L-R" style="whiteSpace=wrap;html=1;fontSize=16;startSize=30;strokeColor=#FF0800;" vertex="1" parent="1">
          <mxGeometry x="830" y="721.5" width="120" height="60" as="geometry" />
        </mxCell>
        <mxCell id="jP0OgEoj5nMLgK3pQah_-309" value="IN EAR" style="whiteSpace=wrap;html=1;fontSize=16;startSize=30;" vertex="1" parent="1">
          <mxGeometry x="910" y="357" width="120" height="60" as="geometry" />
        </mxCell>
      </root>
    </mxGraphModel>
  </diagram>
</mxfile>
